<svg width="15" height="15" viewBox="0 0 15 15" fill="none" xmlns="http://www.w3.org/2000/svg">
<path d="M6.0451 5.45344L7.7123 7.08589L10.0444 4.70417M3.42521 2.88817C2.87396 3.45116 2.43899 4.11721 2.14515 4.8483C1.85131 5.57939 1.70434 6.3612 1.71264 7.14909C1.72094 7.93697 1.88434 8.71551 2.19352 9.44025C2.5027 10.165 2.9516 10.8217 3.51459 11.373C4.07758 11.9242 4.74363 12.3592 5.47472 12.653C6.20581 12.9469 6.98762 13.0939 7.77551 13.0856C8.56339 13.0773 9.34193 12.9138 10.0667 12.6047C10.7914 12.2955 11.4481 11.8466 11.9994 11.2836C12.5507 10.7206 12.9856 10.0546 13.2795 9.32347C13.5733 8.59238 13.7203 7.81057 13.712 7.02268C13.7037 6.2348 13.5403 5.45626 13.2311 4.73152C12.9219 4.00678 12.473 3.35004 11.91 2.79879C11.347 2.24754 10.681 1.81257 9.94989 1.51873C9.2188 1.22489 8.43699 1.07792 7.6491 1.08622C6.86122 1.09452 6.08268 1.25792 5.35794 1.5671C4.6332 1.87628 3.97646 2.32518 3.42521 2.88817Z" stroke="#331300" stroke-width="2" stroke-linecap="round" stroke-linejoin="round"/>
</svg>
