<svg width="15" height="15" viewBox="0 0 15 15" fill="none" xmlns="http://www.w3.org/2000/svg">
<path d="M9.00169 5.7944L7.96125 7.96126L6.26137 5.09394M2.80008 11.021C3.20189 11.6988 3.73327 12.2908 4.36388 12.7632C4.99448 13.2356 5.71196 13.5792 6.47534 13.7744C7.23873 13.9695 8.03308 14.0123 8.81303 13.9005C9.59298 13.7886 10.3433 13.5242 11.021 13.1224C11.6988 12.7206 12.2908 12.1892 12.7632 11.5586C13.2356 10.928 13.5792 10.2106 13.7743 9.44717C13.9695 8.68378 14.0123 7.88943 13.9005 7.10948C13.7886 6.32953 13.5242 5.57925 13.1224 4.90147C12.7206 4.2237 12.1892 3.6317 11.5586 3.15929C10.928 2.68688 10.2105 2.34329 9.44716 2.14816C8.68378 1.95303 7.88943 1.91017 7.10948 2.02202C6.32953 2.13388 5.57925 2.39826 4.90147 2.80008C4.2237 3.2019 3.6317 3.73328 3.15929 4.36388C2.68687 4.99448 2.34329 5.71196 2.14816 6.47535C1.95303 7.23873 1.91016 8.03308 2.02202 8.81303C2.13388 9.59298 2.39826 10.3433 2.80008 11.021Z" stroke="#331300" stroke-width="2" stroke-linecap="round" stroke-linejoin="round"/>
</svg>
