<svg width="15" height="15" viewBox="0 0 15 15" fill="none" xmlns="http://www.w3.org/2000/svg">
<path d="M8.96776 8.95937L7.31364 7.31368L9.66463 4.95064M11.5671 11.5455C11.0114 12.104 10.3511 12.5477 9.62389 12.8511C8.89671 13.1545 8.1169 13.3116 7.32897 13.3137C6.54104 13.3157 5.76043 13.1625 5.03171 12.8628C4.30299 12.5631 3.64042 12.1229 3.08185 11.5671C2.52328 11.0114 2.07963 10.3511 1.77624 9.62394C1.47286 8.89676 1.31567 8.11694 1.31366 7.32901C1.31164 6.54108 1.46484 5.76047 1.76451 5.03175C2.06417 4.30303 2.50444 3.64047 3.06017 3.08189C3.61589 2.52332 4.27619 2.07967 5.00338 1.77629C5.73056 1.4729 6.51037 1.31571 7.2983 1.3137C8.08623 1.31168 8.86684 1.46488 9.59556 1.76455C10.3243 2.06422 10.9868 2.50448 11.5454 3.06021C12.104 3.61593 12.5476 4.27624 12.851 5.00342C13.1544 5.7306 13.3116 6.51041 13.3136 7.29834C13.3156 8.08627 13.1624 8.86688 12.8628 9.5956C12.5631 10.3243 12.1228 10.9869 11.5671 11.5455Z" stroke="#331300" stroke-width="2" stroke-linecap="round" stroke-linejoin="round"/>
</svg>
