<svg width="27" height="28" viewBox="0 0 27 28" fill="none" xmlns="http://www.w3.org/2000/svg">
<path d="M1.33329 15.3333H2.66663V24.6667C2.66663 26.1373 3.86263 27.3333 5.33329 27.3333H21.3333C22.804 27.3333 24 26.1373 24 24.6667V15.3333H25.3333C25.597 15.3333 25.8547 15.2551 26.0739 15.1085C26.2931 14.962 26.464 14.7538 26.5649 14.5102C26.6658 14.2666 26.6922 13.9986 26.6407 13.74C26.5893 13.4814 26.4624 13.2438 26.276 13.0573L14.276 1.05735C14.1522 0.933419 14.0053 0.835102 13.8436 0.768021C13.6818 0.70094 13.5084 0.666412 13.3333 0.666412C13.1582 0.666412 12.9848 0.70094 12.823 0.768021C12.6613 0.835102 12.5143 0.933419 12.3906 1.05735L0.390627 13.0573C0.204214 13.2438 0.0772722 13.4814 0.0258488 13.74C-0.0255746 13.9986 0.000829409 14.2666 0.101723 14.5102C0.202616 14.7538 0.373469 14.962 0.592682 15.1085C0.811895 15.2551 1.06963 15.3333 1.33329 15.3333ZM10.6666 24.6667V18H16V24.6667H10.6666ZM13.3333 3.88535L21.3333 11.8853V18L21.3346 24.6667H18.6666V18C18.6666 16.5293 17.4706 15.3333 16 15.3333H10.6666C9.19596 15.3333 7.99996 16.5293 7.99996 18V24.6667H5.33329V11.8853L13.3333 3.88535Z" fill="#FDF1E4"/>
</svg>
