<svg width="25" height="24" viewBox="0 0 25 24" fill="none" xmlns="http://www.w3.org/2000/svg">
<path d="M8.46675 2H16.8667C20.0667 2 22.6667 4.6 22.6667 7.8V16.2C22.6667 17.7383 22.0557 19.2135 20.968 20.3012C19.8803 21.3889 18.405 22 16.8667 22H8.46675C5.26675 22 2.66675 19.4 2.66675 16.2V7.8C2.66675 6.26174 3.27782 4.78649 4.36553 3.69878C5.45324 2.61107 6.92849 2 8.46675 2ZM8.26675 4C7.31197 4 6.39629 4.37928 5.72116 5.05442C5.04603 5.72955 4.66675 6.64522 4.66675 7.6V16.4C4.66675 18.39 6.27675 20 8.26675 20H17.0667C18.0215 20 18.9372 19.6207 19.6123 18.9456C20.2875 18.2705 20.6667 17.3548 20.6667 16.4V7.6C20.6667 5.61 19.0567 4 17.0667 4H8.26675ZM17.9167 5.5C18.2483 5.5 18.5662 5.6317 18.8006 5.86612C19.0351 6.10054 19.1667 6.41848 19.1667 6.75C19.1667 7.08152 19.0351 7.39946 18.8006 7.63388C18.5662 7.8683 18.2483 8 17.9167 8C17.5852 8 17.2673 7.8683 17.0329 7.63388C16.7984 7.39946 16.6667 7.08152 16.6667 6.75C16.6667 6.41848 16.7984 6.10054 17.0329 5.86612C17.2673 5.6317 17.5852 5.5 17.9167 5.5ZM12.6667 7C13.9928 7 15.2646 7.52678 16.2023 8.46447C17.14 9.40215 17.6667 10.6739 17.6667 12C17.6667 13.3261 17.14 14.5979 16.2023 15.5355C15.2646 16.4732 13.9928 17 12.6667 17C11.3407 17 10.0689 16.4732 9.13121 15.5355C8.19353 14.5979 7.66675 13.3261 7.66675 12C7.66675 10.6739 8.19353 9.40215 9.13121 8.46447C10.0689 7.52678 11.3407 7 12.6667 7ZM12.6667 9C11.8711 9 11.108 9.31607 10.5454 9.87868C9.98282 10.4413 9.66675 11.2044 9.66675 12C9.66675 12.7956 9.98282 13.5587 10.5454 14.1213C11.108 14.6839 11.8711 15 12.6667 15C13.4624 15 14.2255 14.6839 14.7881 14.1213C15.3507 13.5587 15.6667 12.7956 15.6667 12C15.6667 11.2044 15.3507 10.4413 14.7881 9.87868C14.2255 9.31607 13.4624 9 12.6667 9Z" fill="#F4F4F4"/>
</svg>
