<?xml version="1.0" encoding="utf-8"?>
<!-- Generator: Adobe Illustrator 16.0.0, SVG Export Plug-In . SVG Version: 6.00 Build 0)  -->
<!DOCTYPE svg PUBLIC "-//W3C//DTD SVG 1.1//EN" "http://www.w3.org/Graphics/SVG/1.1/DTD/svg11.dtd">
<svg version="1.1" xmlns="http://www.w3.org/2000/svg" xmlns:xlink="http://www.w3.org/1999/xlink" x="0px" y="0px"
	 width="595.275px" height="841.89px" viewBox="0 0 595.275 841.89" enable-background="new 0 0 595.275 841.89"
	 xml:space="preserve">
<g>
	<path d="M399.086,319.472c0,0-0.668-8-9.668-8c0,0-5.666,0-7.332,4c0,0-23.334-39.333-10.668-60.333c0,0,4-5.667-4.666-4.667
		s-15.666-3.667-15.666-3.667s-26-18-50.334-18.333c-24.333-0.333-48,12.667-48,12.667s-9.667-2-12.667-8c0,0-3-15.667,8.333-38.333
		s0-46.333-11.667-55s-13.334-3.667-18.667-11.667s-7.333-0.334-7.333,0.666c0,0,0,6.667-4.667,10s-10.333,15-9.333,32
		s12,35.667,17.333,44.667c0,0,14,24,31.333,31.667c0,0-27.667,22.667-29.667,46c-2,23.334,3,40.002,18.667,54.668
		c0,0,8.667,13.998,39.667,19.666c31,5.666,48-15.668,52.333-24c0,0,12.668-24.668,9.334-52c0,0-7.334-28.667-37-19
		c-29.667,9.666-18,36.666-18,36.666s11,19.666,32.666,17.334c0,0-15.666,16.334-38.333,0.666
		c-22.667-15.666-21.333-35.666-16.333-50.666c5-15,15.333-31.667,36-35.667c20.666-4,41.334,23.667,41.334,23.667
		s19.333,23,13,53.666c-6.334,30.666-19.668,39.668-36.668,57c0,0-30.666,35-97.666,46.334c0,0-30.333,4-45,4
		s-7.667,5.666,0.333,5.666c0,0,38.333,4.666,67.333-4.666c0,0,38.333-8.667,58.667-26.667l2-0.668c0,0-4.333,9-1.667,16.334
		c2.667,7.334-3.667,15-3.667,15s-3.264,6.707,3.667,5.666c6.667-1,5-3.666,17.667,1.334c0,0,23.333,8.666,45.333-3
		s22.667-24.334,23-29c0.334-4.666-2.999-25.332-35.332-48c0,0,19.332-29.666,34.332-36.666c0,0,2.001,9.998,10.668,8.332
		C400.752,327.472,399.086,319.472,399.086,319.472z M219.752,201.139c-11.667-32.667,17.667-42.333,17.667-42.333
		c13.333,17-6,64.333-6,64.333C226.418,218.473,219.752,201.139,219.752,201.139z M319.418,404.472c0,0-5.999-15,2.668-21.334
		c8.666-4.332,14.332,5.668,14.332,5.668S320.085,389.138,319.418,404.472z M338.418,398.472c0,0,5.334-2.666,5.668,4.334
		c0.332,7-8.334,7.666-9.668,5.332C333.086,405.806,331.752,401.804,338.418,398.472z M366.086,403.472c1,8-2,22-14,23.667
		c-12,1.668-23.334-10.333-23.334-10.333c18.666,1.666,28.666-3.334,27-21.668c-1.666-18.332-22.334-25-22.334-25l4.668-4.666
		C362.086,380.804,365.086,395.472,366.086,403.472z"/>
	<path d="M368.752,352.806c0,0-9.333,1.666-3.666,10.332c5.666,8.668,11,1.668,12,0.334S381.086,350.806,368.752,352.806z"/>
</g>
</svg>
