<svg width="33" height="32" viewBox="0 0 33 32" fill="none" xmlns="http://www.w3.org/2000/svg">
<path d="M10.0001 14.6667H23.3335V17.3334H10.0001V14.6667Z" fill="#B7946C"/>
<path d="M16.6667 2.66669C9.31471 2.66669 3.33337 8.64802 3.33337 16C3.33337 23.352 9.31471 29.3334 16.6667 29.3334C24.0187 29.3334 30 23.352 30 16C30 8.64802 24.0187 2.66669 16.6667 2.66669ZM16.6667 26.6667C10.7854 26.6667 6.00004 21.8814 6.00004 16C6.00004 10.1187 10.7854 5.33335 16.6667 5.33335C22.548 5.33335 27.3334 10.1187 27.3334 16C27.3334 21.8814 22.548 26.6667 16.6667 26.6667Z" fill="#B7946C"/>
</svg>
