<svg width="29" height="22" viewBox="0 0 29 22" fill="none" xmlns="http://www.w3.org/2000/svg">
<path d="M16.6667 16.9906C16.6667 19.5692 18.764 21.6666 21.3427 21.6666C23.9213 21.6666 26.0187 19.5692 26.0187 16.9906C26.0187 16.7546 25.9827 16.5279 25.948 16.3012H26V2.99989H28.6667V0.333221H24.6667C24.313 0.333221 23.9739 0.473697 23.7239 0.723746C23.4738 0.973795 23.3333 1.31293 23.3333 1.66655V12.7772C22.7125 12.4768 22.0323 12.3192 21.3427 12.3159C20.1031 12.3169 18.9145 12.8098 18.0379 13.6862C17.1612 14.5626 16.6681 15.751 16.6667 16.9906ZM2 1.66655H20.6667V4.33322H2V1.66655Z" fill="#FDF1E4"/>
<path d="M0.888916 6.74988H21.1111V9.58321H0.888916V6.74988ZM0.888916 12.4165H13.8889V15.2499H0.888916V12.4165ZM0.888916 18.0832H13.8889V20.9165H0.888916V18.0832Z" fill="#FDF1E4"/>
</svg>
