<svg width="33" height="32" viewBox="0 0 33 32" fill="none" xmlns="http://www.w3.org/2000/svg">
<path d="M18.0001 9.33331H15.3335V14.6666H10.0001V17.3333H15.3335V22.6666H18.0001V17.3333H23.3335V14.6666H18.0001V9.33331Z" fill="#B7946C"/>
<path d="M16.6667 2.66666C9.31471 2.66666 3.33337 8.64799 3.33337 16C3.33337 23.352 9.31471 29.3333 16.6667 29.3333C24.0187 29.3333 30 23.352 30 16C30 8.64799 24.0187 2.66666 16.6667 2.66666ZM16.6667 26.6667C10.7854 26.6667 6.00004 21.8813 6.00004 16C6.00004 10.1187 10.7854 5.33332 16.6667 5.33332C22.548 5.33332 27.3334 10.1187 27.3334 16C27.3334 21.8813 22.548 26.6667 16.6667 26.6667Z" fill="#B7946C"/>
</svg>
