<svg width="27" height="28" viewBox="0 0 27 28" fill="none" xmlns="http://www.w3.org/2000/svg">
<path d="M0.457993 18.3612L3.12466 22.9746C3.3017 23.2806 3.59302 23.5037 3.93456 23.595C4.27611 23.6863 4.63992 23.6381 4.94599 23.4612L6.80732 22.3866C7.58066 22.9959 8.43533 23.4959 9.33399 23.8692V25.9999C9.33399 26.3535 9.47447 26.6927 9.72451 26.9427C9.97456 27.1928 10.3137 27.3332 10.6673 27.3332H16.0007C16.3543 27.3332 16.6934 27.1928 16.9435 26.9427C17.1935 26.6927 17.334 26.3535 17.334 25.9999V23.8692C18.2397 23.4922 19.0897 22.9933 19.8607 22.3866L21.722 23.4612C22.358 23.8279 23.1767 23.6079 23.5433 22.9746L26.21 18.3612C26.3855 18.0548 26.4328 17.6915 26.3416 17.3504C26.2505 17.0092 26.0283 16.7179 25.7233 16.5399L23.894 15.4826C24.0369 14.4992 24.036 13.5003 23.8913 12.5172L25.7207 11.4599C26.3553 11.0932 26.5753 10.2732 26.2073 9.63856L23.5407 5.02523C23.3636 4.71923 23.0723 4.49606 22.7308 4.4048C22.3892 4.31353 22.0254 4.36165 21.7193 4.53856L19.858 5.61323C19.0881 5.00574 18.2383 4.50685 17.3327 4.13056V1.9999C17.3327 1.64628 17.1922 1.30714 16.9421 1.05709C16.6921 0.807041 16.3529 0.666565 15.9993 0.666565H10.666C10.3124 0.666565 9.97323 0.807041 9.72318 1.05709C9.47313 1.30714 9.33266 1.64628 9.33266 1.9999V4.13056C8.42696 4.50764 7.57691 5.00646 6.80599 5.61323L4.94599 4.53856C4.79448 4.45079 4.62715 4.39375 4.45358 4.3707C4.28 4.34766 4.10358 4.35906 3.93442 4.40426C3.76526 4.44946 3.60666 4.52758 3.46772 4.63413C3.32877 4.74068 3.21219 4.87358 3.12466 5.02523L0.457993 9.63856C0.28251 9.94497 0.235192 10.3083 0.326343 10.6494C0.417494 10.9906 0.639732 11.2819 0.944659 11.4599L2.77399 12.5172C2.63017 13.5004 2.63017 14.4994 2.77399 15.4826L0.944659 16.5399C0.309993 16.9066 0.0899926 17.7266 0.457993 18.3612ZM13.3327 8.66656C16.274 8.66656 18.666 11.0586 18.666 13.9999C18.666 16.9412 16.274 19.3332 13.3327 19.3332C10.3913 19.3332 7.99932 16.9412 7.99932 13.9999C7.99932 11.0586 10.3913 8.66656 13.3327 8.66656Z" fill="#FDF1E4"/>
</svg>
