<svg width="25" height="24" viewBox="0 0 25 24" fill="none" xmlns="http://www.w3.org/2000/svg">
<g clip-path="url(#clip0_217_3775)">
<path d="M11.0983 21.048C11.7497 21.048 12.2195 20.5693 12.2195 19.9273V4.64572C12.2195 4.00372 11.7497 3.46714 11.0795 3.46714C10.6097 3.46714 10.3033 3.69729 9.78603 4.15714L5.28303 8.15229C5.22518 8.20971 5.13903 8.23843 5.04303 8.23843H2.19818C0.837462 8.23843 0.166748 8.919 0.166748 10.3654V14.1789C0.166748 15.6253 0.837462 16.3054 2.19818 16.3054H5.04346C5.13903 16.3054 5.22561 16.3341 5.28303 16.392L9.78603 20.4253C10.2553 20.847 10.629 21.048 11.0983 21.048ZM10.5429 19.0264C10.4949 19.0264 10.4375 18.9977 10.38 18.9407L6.13546 15.1179C5.90575 14.907 5.71418 14.859 5.45532 14.859H2.26503C1.89132 14.859 1.70918 14.6863 1.70918 14.3031V10.2407C1.70918 9.86743 1.89132 9.68529 2.26503 9.68529H5.45532C5.71418 9.68529 5.89589 9.64672 6.13546 9.42643L10.38 5.57529C10.4276 5.53672 10.4855 5.49814 10.5429 5.49814C10.6286 5.49814 10.677 5.556 10.677 5.63272V18.8829C10.677 18.969 10.629 19.0264 10.5429 19.0264ZM23.6203 9.915H21.2739V9.85757L23.6782 6.68614C23.8989 6.40843 23.9756 6.23614 23.9756 6.04457C23.9756 5.71886 23.7266 5.52729 23.3816 5.52729H20.0567C19.7409 5.52729 19.5013 5.72872 19.5013 6.05443C19.5013 6.399 19.7409 6.60043 20.0567 6.60043H22.2797V6.648L19.8369 9.81943C19.6162 10.0971 19.5395 10.26 19.5395 10.4803C19.5395 10.7773 19.779 10.998 20.124 10.998H23.6212C23.937 10.998 24.1672 10.7871 24.1672 10.4516C24.1672 10.1357 23.937 9.91543 23.6207 9.91543M17.796 13.8724H16.1567V13.8339L17.8625 11.6019C18.0536 11.343 18.1402 11.1707 18.1402 10.989C18.1402 10.6821 17.8907 10.5004 17.565 10.5004H15.045C14.7386 10.5004 14.5282 10.7014 14.5282 10.9984C14.5282 11.3336 14.7386 11.5256 15.0455 11.5256H16.5206V11.5633L14.8252 13.7863C14.643 14.0447 14.5569 14.1981 14.5569 14.409C14.5569 14.6961 14.7866 14.9074 15.1029 14.9074H17.7952C18.1016 14.9074 18.3219 14.7154 18.3219 14.3897C18.3219 14.0833 18.1016 13.8724 17.7947 13.8724M22.2592 17.5131H20.8603V17.4746L22.2977 15.549C22.4992 15.2807 22.5755 15.1371 22.5755 14.9649C22.5755 14.6679 22.3453 14.4857 22.0389 14.4857H19.8163C19.5287 14.4857 19.3179 14.6773 19.3179 14.9743C19.3179 15.2807 19.5287 15.4629 19.8163 15.4629H21.0425V15.5014L19.6149 17.427C19.4332 17.676 19.3466 17.8196 19.3466 18.0116C19.3466 18.2893 19.5669 18.4809 19.8639 18.4809H22.2596C22.5373 18.4809 22.7482 18.2987 22.7482 17.9923C22.7482 17.7051 22.5369 17.5131 22.2592 17.5131Z" fill="#FCFCFC"/>
</g>
<defs>
<clipPath id="clip0_217_3775">
<rect width="24" height="24" fill="white" transform="translate(0.166748)"/>
</clipPath>
</defs>
</svg>
