<svg width="27" height="24" viewBox="0 0 27 24" fill="none" xmlns="http://www.w3.org/2000/svg">
<path d="M2.73796 23.9999H23.9286C25.3993 23.9999 26.5953 22.8039 26.5953 21.3332V2.66654C26.5953 1.19588 25.3993 -0.00012207 23.9286 -0.00012207H2.73796C1.26729 -0.00012207 0.0712891 1.19588 0.0712891 2.66654V21.3332C0.0712891 22.8039 1.26729 23.9999 2.73796 23.9999ZM2.73796 21.3332V14.6665H8.07129V21.3332H2.73796ZM16.0713 5.33321V11.9999H10.738V5.33321H16.0713ZM8.07129 5.33321V11.9999H2.73796V5.33321H8.07129ZM10.738 21.3332V14.6665H16.0713V21.3332H10.738ZM18.738 21.3332V14.6665H23.93V21.3332H18.738ZM23.9286 11.9999H18.738V5.33321H23.9286V11.9999Z" fill="#FDF1E4"/>
</svg>
